<?xml version="1.0" encoding="utf-8"?>
<!-- Generator: Adobe Illustrator 19.0.0, SVG Export Plug-In . SVG Version: 6.00 Build 0)  -->
<svg version="1.1" id="Layer_1" xmlns="http://www.w3.org/2000/svg" xmlns:xlink="http://www.w3.org/1999/xlink" x="0px" y="0px"
  viewBox="0 0 960 560" style="enable-background:new 0 0 960 560;" xml:space="preserve">
<style type="text/css">
 .st0{fill:none;stroke:#000000;stroke-miterlimit:10;}
</style>
<line class="st0" x1="366.2" y1="261.7" x2="608.7" y2="147.6"/>
<g>
 <g>
  <path d="M76.1,93.6c21.2,2.5,41.8,8.7,60.9,18.2c8.9,4.4,17.5,9.6,25.5,15.4c8.3,6,20.7,13.9,23.6,24.3c1.5,5.2,0.9,11,0.4,16.3
   c-0.5,6.2-1.5,12.4-2.8,18.4c-2.2,10.2-5.4,20.1-9.4,29.8c-8.6,20.7-20.8,39.7-34.7,57.2c-15.5,19.5-33.1,37.3-50.9,54.8
   c-1.4,1.4,0.7,3.5,2.1,2.1c33.4-33,67-67.7,85.7-111.5c4.4-10.4,8-21.3,10.3-32.4c2.2-10.3,4.4-22.2,2.8-32.7
   c-1.6-10.4-10.3-16.9-18-23.1c-8.5-6.8-17.6-12.9-27.2-18.1c-21.2-11.5-44.4-18.8-68.3-21.7C74.2,90.4,74.3,93.4,76.1,93.6
   L76.1,93.6z"/>
 </g>
</g>
</svg>